<svg width="117" height="35" viewBox="0 0 117 35" fill="none" xmlns="http://www.w3.org/2000/svg">
<g id="Group">
<path id="Vector" d="M72.5827 27.3507C65.8642 32.3183 56.0917 34.965 47.663 34.965C35.8546 34.965 25.2678 30.6082 17.2056 23.3603C16.5948 22.7902 17.1241 22.0166 17.8978 22.4645C26.5708 27.5136 37.2798 30.5267 48.3552 30.5267C55.8067 30.5267 64.0318 28.9794 71.6055 25.7627C72.7456 25.3148 73.6821 26.5363 72.5827 27.3507Z" fill="#2F2F2F"/>
<path id="Vector_2" d="M75.3923 24.1338C74.5372 23.0344 69.6917 23.6045 67.5336 23.8895C66.8821 23.9709 66.76 23.4009 67.3708 22.9937C71.239 20.2655 77.5504 21.0799 78.2833 21.9757C79.0162 22.8715 78.0797 29.2236 74.4558 32.2368C73.8857 32.6847 73.3564 32.4404 73.6007 31.8296C74.4151 29.7937 76.2474 25.2739 75.3923 24.1338Z" fill="#2F2F2F"/>
<path id="Exclude" fill-rule="evenodd" clip-rule="evenodd" d="M24.6163 20.2658H21.0331C20.7073 20.225 20.4223 19.9807 20.3816 19.655V1.25021C20.3816 0.883743 20.7073 0.598713 21.0738 0.598713H24.4127C24.7792 0.598713 25.0235 0.883743 25.0642 1.20949V3.61188H25.1457C26.0007 1.29093 27.6702 0.191528 29.869 0.191528C32.1085 0.191528 33.5337 1.29093 34.5109 3.61188C35.366 1.29093 37.3612 0.191528 39.4786 0.191528C40.9852 0.191528 42.6139 0.802306 43.6319 2.22745C44.6023 3.54445 44.5697 5.36292 44.5385 7.10539C44.5331 7.41011 44.5277 7.7125 44.5277 8.00948V19.655C44.5277 20.0214 44.2019 20.3065 43.8355 20.3065H40.2929C39.9265 20.2658 39.6414 19.9807 39.6414 19.655V9.88253C39.6414 9.716 39.6452 9.49476 39.6495 9.24277C39.6652 8.32407 39.6878 6.99663 39.56 6.42146C39.275 5.1999 38.5013 4.83344 37.4426 4.83344C36.5876 4.83344 35.651 5.4035 35.2846 6.34002C34.9504 7.19408 34.9548 8.55607 34.9582 9.59222C34.9585 9.69228 34.9588 9.7893 34.9588 9.88253V19.655C34.9588 20.0214 34.6331 20.3065 34.2666 20.3065H30.6834C30.3169 20.2658 30.0319 19.9807 30.0319 19.655V9.88253C30.0319 9.67968 30.0351 9.46672 30.0384 9.24768C30.0685 7.26837 30.1061 4.79272 27.8331 4.79272C25.3437 4.79272 25.3467 7.55357 25.3491 9.68908L25.3492 9.88253V19.655C25.3085 19.9807 25.0235 20.2658 24.6163 20.2658ZM67.6558 3.85643V1.20972C67.6558 0.802539 67.9408 0.558228 68.3073 0.558228H80.1156C80.4821 0.558228 80.8079 0.843257 80.8079 1.20972V3.44924C80.8079 3.81571 80.4821 4.30433 79.912 5.1187L73.8043 13.8325C76.0845 13.7917 78.4869 14.1175 80.5228 15.2576C80.9707 15.5019 81.0929 15.9091 81.1336 16.2756V19.0851C81.1336 19.4923 80.7264 19.9402 80.2785 19.6959C76.6546 17.7822 71.8091 17.5786 67.8186 19.7366C67.4115 19.9402 66.9636 19.5331 66.9636 19.1259V16.4384C66.9636 16.0313 66.9636 15.2983 67.4115 14.6468L74.4965 4.50792H68.348C67.9815 4.50792 67.6558 4.22289 67.6558 3.85643ZM99.2126 10.5747C99.2126 4.752 96.3216 0.191528 90.9875 0.191528C85.7755 0.191528 82.8845 4.67056 82.9252 10.4119C82.9252 16.1125 85.7755 20.6729 90.9875 20.6729C96.0366 20.6729 99.2126 16.1939 99.2126 10.5747ZM90.9875 3.97815C88.3408 3.97815 88.1779 7.6021 88.1779 9.84161L88.1779 9.93628C88.1773 12.2135 88.1762 16.8859 90.9468 16.8859C93.7156 16.8859 93.8785 13.0177 93.8785 10.656C93.8785 9.10868 93.7971 7.23563 93.3492 5.76976C92.942 4.46677 92.1276 3.97815 90.9875 3.97815ZM102.511 20.2658H106.094C106.461 20.2658 106.786 19.9807 106.827 19.6143V9.67894C106.827 8.41667 106.908 7.31727 107.397 6.17715C107.804 5.28134 108.619 4.71128 109.474 4.71128C111.758 4.71128 111.735 7.19082 111.716 9.17283C111.715 9.34599 111.713 9.51536 111.713 9.67894V19.6957C111.754 19.9807 112.039 20.225 112.365 20.2658H115.948C116.314 20.2658 116.599 20.0214 116.64 19.6957V8.09092C116.64 6.2993 116.64 3.81548 115.704 2.34961C114.686 0.761587 113.098 0.191528 111.51 0.191528C109.026 0.191528 107.641 1.37237 106.623 3.89691H106.542V1.08734C106.461 0.802306 106.216 0.557995 105.89 0.557995H102.552C102.185 0.557995 101.9 0.843024 101.859 1.16877V19.6143C101.859 19.94 102.144 20.225 102.511 20.2658Z" fill="#2F2F2F"/>
<path id="Subtract" fill-rule="evenodd" clip-rule="evenodd" d="M61.0187 20.3063C61.3037 20.4691 61.6294 20.4284 61.8738 20.2248C62.1339 20.008 62.4659 19.7245 62.8205 19.4217C63.465 18.8713 64.1843 18.2571 64.6833 17.8631C64.9684 17.6596 64.9276 17.2524 64.6833 16.9266C64.6048 16.8137 64.5257 16.7038 64.4473 16.5949C63.875 15.7998 63.3396 15.0559 63.3396 13.5877V8.00927C63.3396 7.82283 63.3406 7.6374 63.3416 7.45319C63.3534 5.30398 63.3643 3.32022 61.7516 1.82006C60.3672 0.476346 58.0869 0.0284424 56.336 0.0284424C52.9157 0.0284424 49.1289 1.29072 48.3145 5.52544C48.2331 5.97334 48.5588 6.17694 48.8438 6.25837L52.3049 6.62484C52.6307 6.62484 52.8342 6.29909 52.9157 5.97334C53.2007 4.50748 54.4223 3.81526 55.8067 3.81526C56.5396 3.81526 57.354 4.10029 57.8019 4.75179C58.2699 5.39976 58.2605 6.27052 58.252 7.05455C58.2509 7.15735 58.2498 7.25866 58.2498 7.35777V7.80568C57.912 7.84542 57.5569 7.88301 57.1907 7.92178C55.306 8.1213 53.1271 8.35197 51.4905 9.06795C49.251 10.0452 47.663 11.9997 47.663 14.9314C47.663 18.6368 50.0247 20.5099 53.0378 20.5099C55.5624 20.5099 56.9875 19.8991 58.942 17.9039C59.0367 18.0399 59.1227 18.1665 59.2043 18.2866C59.6843 18.9927 60.0094 19.471 61.0187 20.3063ZM58.25 11.6891C58.2499 11.6168 58.2498 11.5439 58.2498 11.4706V10.6969C55.6438 10.6969 52.9157 11.267 52.9157 14.3208C52.9157 15.8681 53.7301 16.9268 55.1145 16.9268C56.1324 16.9268 57.0282 16.3161 57.5983 15.2981C58.2538 14.1027 58.2521 12.9804 58.25 11.6891Z" fill="#2F2F2F"/>
<path id="Subtract_2" fill-rule="evenodd" clip-rule="evenodd" d="M13.9481 20.3063C14.2331 20.4691 14.5589 20.4284 14.8032 20.2248C15.0633 20.008 15.3953 19.7245 15.75 19.4217C16.3944 18.8713 17.1137 18.2571 17.6127 17.8631C17.8978 17.6596 17.8571 17.2524 17.6127 16.9266C17.5342 16.8137 17.4551 16.7038 17.3767 16.5949C16.8044 15.7998 16.269 15.0559 16.269 13.5877V8.00927C16.269 7.82283 16.27 7.6374 16.2711 7.45319C16.2828 5.30398 16.2937 3.32022 14.681 1.82006C13.2966 0.476346 11.0163 0.0284424 9.26545 0.0284424C5.8451 0.0284424 2.05827 1.29072 1.2439 5.52544C1.16247 5.97334 1.48821 6.17694 1.77324 6.25837L5.23432 6.62484C5.56006 6.62484 5.76366 6.29909 5.84509 5.97334C6.13012 4.50748 7.35168 3.81526 8.73611 3.81526C9.46904 3.81526 10.2834 4.10029 10.7313 4.75179C11.1993 5.39976 11.1899 6.27052 11.1814 7.05455C11.1803 7.15735 11.1792 7.25866 11.1792 7.35777V7.80568C10.8414 7.84542 10.4863 7.88301 10.1201 7.92178C8.23539 8.1213 6.05647 8.35197 4.41995 9.06795C2.18043 10.0452 0.592407 11.9997 0.592407 14.9314C0.592407 18.6368 2.95408 20.5099 5.96725 20.5099C8.4918 20.5099 9.91694 19.8991 11.8714 17.9039C11.9661 18.0399 12.0521 18.1665 12.1337 18.2866C12.6137 18.9927 12.9388 19.471 13.9481 20.3063ZM11.2202 11.6891C11.22 11.6168 11.2199 11.5439 11.2199 11.4706V10.6969C8.61395 10.6969 5.88581 11.267 5.88581 14.3208C5.88581 15.8681 6.70018 16.9268 8.08461 16.9268C9.10257 16.9268 9.99838 16.3161 10.5684 15.2981C11.224 14.1027 11.2222 12.9804 11.2202 11.6891Z" fill="#2F2F2F"/>
</g>
</svg>
