<svg width="169" height="35" viewBox="0 0 169 35" fill="none" xmlns="http://www.w3.org/2000/svg">
<g id="Group">
<path id="Exclude" fill-rule="evenodd" clip-rule="evenodd" d="M13.8227 24.7955C16.51 29.2015 21.4385 32.1576 26.9236 32.1576C35.0281 32.1576 39.4895 25.1635 39.4895 25.1635L40.0637 27.0265C36.3116 31.9064 29.6086 34.8461 22.1094 34.8461C13.4752 34.8461 6.02887 30.7272 2.60258 24.7875C1.31254 22.5503 0.592407 20.0513 0.592407 17.4195C0.592407 7.79512 10.2248 -0.00646973 22.109 -0.00646973C30.5059 -0.00646973 37.2665 3.59017 40.8155 8.80238L26.7263 17.2392L34.767 4.8926C32.4666 3.44583 29.6443 2.09105 26.7263 2.09105C18.4774 2.09105 11.6834 8.97459 11.6834 17.2231C11.6834 19.9869 12.4682 22.5837 13.8227 24.7955ZM51.5478 24.7906C51.5055 25.072 51.4844 25.3562 51.4846 25.6408C51.4846 28.7719 54.0232 31.3108 57.1546 31.3108C60.286 31.3108 62.8243 28.7722 62.8243 25.6408C62.8244 25.3552 62.8032 25.0699 62.7608 24.7875C62.3507 22.0627 59.997 19.9711 57.1543 19.9711C54.3118 19.9711 51.9578 22.0627 51.5478 24.7906ZM75.4044 34.2796L72.5865 24.7875L68.388 10.6459C68.388 10.6459 65.7355 3.42291 57.3649 6.46822C48.9943 9.51384 47.1068 10.6459 47.1068 10.6459H58.4517L61.1443 19.648C59.0731 17.8184 56.0417 16.6644 52.6644 16.6644C46.714 16.6644 41.8379 20.2471 41.3937 24.7875C41.3721 25.0182 41.3609 25.2443 41.3609 25.472C41.3609 30.3367 46.4213 34.2796 52.6644 34.2796C57.8821 34.2796 62.2745 31.5251 63.576 27.7798L65.5196 34.2796H75.4044ZM104.191 24.7877V34.2798H94.0198V13.4248C94.0198 11.8902 92.7758 10.6461 91.2412 10.6461C90.0956 10.6459 89.0674 11.3486 88.6515 12.416V34.2798H78.669V10.6461H72.8473C72.8473 10.6461 80.9462 5.73962 83.7546 5.73962C86.4161 5.73962 88.386 7.78449 88.6323 10.3894C89.3863 9.98263 90.1392 9.56018 90.8824 9.14313C93.9998 7.39385 96.9477 5.73962 99.1056 5.73962C101.867 5.73962 104.114 7.93998 104.191 10.6833V24.7877ZM121.275 29.4662L119.859 24.7876L115.583 10.6458C115.815 8.80162 117.634 7.01941 119.541 7.01941C121.468 7.01941 123.054 8.47423 123.262 10.3456L127.488 24.7876L128.691 28.9C128.708 29.0418 128.716 29.1859 128.716 29.3324C128.716 31.3999 127.04 33.0755 124.973 33.0755C122.95 33.0755 121.302 31.4714 121.275 29.4662ZM136.046 24.7895C134.12 30.6302 128.619 34.8463 122.132 34.8463C115.645 34.8463 110.144 30.6305 108.217 24.7877C107.729 23.3068 107.482 21.7574 107.483 20.1983C107.483 12.1084 114.042 5.55066 122.132 5.55066C130.222 5.55066 136.781 12.1084 136.781 20.1983C136.781 21.8018 136.523 23.3455 136.046 24.7895ZM152.887 34.2798V24.7877V12.416C153.303 11.3486 154.331 10.6459 155.476 10.6461C157.011 10.6461 158.255 11.8902 158.255 13.4248V34.2798H168.426V10.6833C168.35 7.93998 166.102 5.73962 163.341 5.73962C161.183 5.73962 158.236 7.39346 155.119 9.14251C154.376 9.55976 153.623 9.98243 152.868 10.3894C152.621 7.78449 150.652 5.73962 147.99 5.73962C145.181 5.73962 137.322 10.6461 137.322 10.6461H142.904V34.2798H152.887Z" fill="#2F2F2F"/>
</g>
</svg>
