<svg width="157" height="157" viewBox="0 0 157 157" fill="none" xmlns="http://www.w3.org/2000/svg">
<g filter="url(#filter0_d_0_558)">
<circle cx="78.5" cy="63.5" r="48.5" fill="white"/>
<rect width="40" height="40" transform="translate(58.5 44)" fill="white"/>
<path d="M68.5 78.9999H63.5C63.058 78.9999 62.6341 78.8243 62.3215 78.5118C62.009 78.1992 61.8334 77.7753 61.8334 77.3333V63.9999C61.8334 63.5579 62.009 63.134 62.3215 62.8214C62.6341 62.5088 63.058 62.3333 63.5 62.3333H68.5C68.9421 62.3333 69.366 62.5088 69.6786 62.8214C69.9911 63.134 70.1667 63.5579 70.1667 63.9999V77.3333C70.1667 77.7753 69.9911 78.1992 69.6786 78.5118C69.366 78.8243 68.9421 78.9999 68.5 78.9999ZM80.1667 78.9999H75.1667C74.7247 78.9999 74.3008 78.8243 73.9882 78.5118C73.6756 78.1992 73.5 77.7753 73.5 77.3333V48.9999C73.5 48.5579 73.6756 48.134 73.9882 47.8214C74.3008 47.5088 74.7247 47.3333 75.1667 47.3333H80.1667C80.6087 47.3333 81.0327 47.5088 81.3452 47.8214C81.6578 48.134 81.8334 48.5579 81.8334 48.9999V77.3333C81.8334 77.7753 81.6578 78.1992 81.3452 78.5118C81.0327 78.8243 80.6087 78.9999 80.1667 78.9999ZM91.8334 78.9999H86.8334C86.3913 78.9999 85.9674 78.8243 85.6549 78.5118C85.3423 78.1992 85.1667 77.7753 85.1667 77.3333V58.9999C85.1667 58.5579 85.3423 58.134 85.6549 57.8214C85.9674 57.5088 86.3913 57.3333 86.8334 57.3333H91.8334C92.2754 57.3333 92.6993 57.5088 93.0119 57.8214C93.3244 58.134 93.5 58.5579 93.5 58.9999V77.3333C93.5 77.7753 93.3244 78.1992 93.0119 78.5118C92.6993 78.8243 92.2754 78.9999 91.8334 78.9999Z" fill="#FF6800"/>
</g>
<defs>
<filter id="filter0_d_0_558" x="0" y="0" width="157" height="157" filterUnits="userSpaceOnUse" color-interpolation-filters="sRGB">
<feFlood flood-opacity="0" result="BackgroundImageFix"/>
<feColorMatrix in="SourceAlpha" type="matrix" values="0 0 0 0 0 0 0 0 0 0 0 0 0 0 0 0 0 0 127 0" result="hardAlpha"/>
<feOffset dy="15"/>
<feGaussianBlur stdDeviation="15"/>
<feComposite in2="hardAlpha" operator="out"/>
<feColorMatrix type="matrix" values="0 0 0 0 1 0 0 0 0 0.407843 0 0 0 0 0 0 0 0 0.4 0"/>
<feBlend mode="normal" in2="BackgroundImageFix" result="effect1_dropShadow_0_558"/>
<feBlend mode="normal" in="SourceGraphic" in2="effect1_dropShadow_0_558" result="shape"/>
</filter>
</defs>
</svg>
