<svg width="158" height="157" viewBox="0 0 158 157" fill="none" xmlns="http://www.w3.org/2000/svg">
<g filter="url(#filter0_d_658_2)">
<circle cx="79" cy="63.5" r="48.5" fill="white"/>
<path d="M80.0615 46.3872C79.753 46.1659 79.3825 46.0479 79.0028 46.0498C78.6232 46.0518 78.2539 46.1737 77.9477 46.3982C74.5853 48.8347 64.3333 57.1287 64.3333 67.6667C64.3333 73.6196 67.9047 78.7456 73.0123 81.0427C72.1385 79.8129 71.6683 78.342 71.6667 76.8334C71.6355 70.9282 78.1897 64.1962 78.4683 64.0001C78.6231 63.8892 78.8087 63.8295 78.9991 63.8295C79.1895 63.8295 79.3751 63.8892 79.5298 64.0001C79.8085 64.1962 86.3333 69.4524 86.3333 76.8371C86.3333 78.4027 85.8292 79.8492 84.9895 81.0427C90.0953 78.7456 93.6667 73.6214 93.6667 67.6759C93.6667 56.9307 83.433 48.7797 80.0615 46.3872Z" fill="#4C40F7"/>
</g>
<defs>
<filter id="filter0_d_658_2" x="0.5" y="0" width="157" height="157" filterUnits="userSpaceOnUse" color-interpolation-filters="sRGB">
<feFlood flood-opacity="0" result="BackgroundImageFix"/>
<feColorMatrix in="SourceAlpha" type="matrix" values="0 0 0 0 0 0 0 0 0 0 0 0 0 0 0 0 0 0 127 0" result="hardAlpha"/>
<feOffset dy="15"/>
<feGaussianBlur stdDeviation="15"/>
<feComposite in2="hardAlpha" operator="out"/>
<feColorMatrix type="matrix" values="0 0 0 0 0.214421 0 0 0 0 0.177604 0 0 0 0 0.739062 0 0 0 1 0"/>
<feBlend mode="normal" in2="BackgroundImageFix" result="effect1_dropShadow_658_2"/>
<feBlend mode="normal" in="SourceGraphic" in2="effect1_dropShadow_658_2" result="shape"/>
</filter>
</defs>
</svg>
