<svg width="126" height="35" viewBox="0 0 126 35" fill="none" xmlns="http://www.w3.org/2000/svg">
<g id="Group">
<path id="Exclude" fill-rule="evenodd" clip-rule="evenodd" d="M121.017 26.2234C118.894 26.2234 117.018 27.8202 117.018 30.1823C117.018 32.5397 118.894 34.1381 121.017 34.1381C123.147 34.1381 125.019 32.5397 125.019 30.1823C125.019 27.8202 123.146 26.2234 121.017 26.2234ZM121.02 26.8612C122.893 26.8612 124.252 28.2651 124.252 30.1823C124.252 32.0941 122.893 33.4979 121.02 33.4979C119.15 33.4979 117.789 32.0964 117.789 30.1823C117.789 28.2651 119.15 26.8612 121.02 26.8612ZM120.171 32.5218V30.3526L120.175 30.3542V30.3518H120.855C121.319 30.3518 121.536 30.4996 121.659 30.9048C121.723 31.1361 121.756 31.3868 121.788 31.6332C121.83 31.9547 121.871 32.2689 121.981 32.5234H122.81C122.678 32.373 122.597 31.7997 122.536 31.3705C122.526 31.3024 122.517 31.238 122.509 31.1794C122.425 30.5191 122.277 30.1582 121.872 30.0936V30.0734C122.338 30.0119 122.7 29.5881 122.7 29.0529C122.7 28.1842 122.232 27.7385 121.211 27.7385H119.47V32.5218H120.171ZM121.039 29.7345C121.72 29.7345 121.914 29.3721 121.914 29.0524C121.914 28.6744 121.72 28.3757 121.039 28.3757H120.171V29.7361H121.039V29.7345Z" fill="#2F2F2F"/>
<g id="Group_2">
<path id="Exclude_2" fill-rule="evenodd" clip-rule="evenodd" d="M65.9035 0.18042V33.4483H84.3664V26.0143H73.7241V19.4654H84.3664L84.3664 12.3303L93.7635 22.891L84.3664 33.4485H93.9813L98.5507 28.2787L103.161 33.4485H113.117L103.637 22.8467L112.987 12.3303H103.419L98.9381 17.4605L94.2815 12.3303H84.3664L84.3664 12.3301H73.7241V7.59575H84.3664V0.18042H65.9035Z" fill="#2F2F2F"/>
</g>
<path id="Exclude_3" fill-rule="evenodd" clip-rule="evenodd" d="M58.1117 0.182007V13.7955H58.0254C56.301 11.8137 54.1458 11.123 51.6468 11.123C46.5259 11.123 42.6682 14.6067 41.314 19.2088C39.7694 14.1369 35.7864 11.0281 29.8815 11.0281C25.0849 11.0281 21.2987 13.1802 19.3208 16.688V12.3293H9.40805V7.59656H20.2269V0.182007H0.571716V33.4483H9.40805V19.4655H18.2156C17.9443 20.5407 17.8087 21.6457 17.8119 22.7547C17.8119 29.6909 23.1125 34.5652 29.8799 34.5652C35.5686 34.5652 39.3206 31.892 41.3032 27.0254H33.7299C32.7064 28.49 31.9286 28.9225 29.8807 28.9225C27.5069 28.9225 25.4583 26.8505 25.4583 24.3973H40.8785C41.5474 29.9079 45.8407 34.6593 51.7332 34.6593C54.2749 34.6593 56.6021 33.4095 58.0246 31.2978H58.1102V33.453H65.9012V0.182007H58.1117ZM25.7041 19.565C26.1964 17.451 27.8352 16.0697 29.8807 16.0697C32.1332 16.0697 33.6887 17.4082 34.097 19.565H25.7041ZM48.7286 22.9172C48.7286 25.711 50.5128 28.3858 53.3836 28.3858C56.5274 28.3858 57.8854 25.7468 57.8854 22.9172C57.8854 19.9321 56.6028 17.0613 53.3836 17.0613C50.281 17.0613 48.7286 19.9306 48.7286 22.9172Z" fill="#2F2F2F"/>
</g>
</svg>
