<svg width="122" height="35" viewBox="0 0 122 35" fill="none" xmlns="http://www.w3.org/2000/svg">
<g id="Group">
<path id="Exclude" fill-rule="evenodd" clip-rule="evenodd" d="M5.16673 6.52393H0.958618V29.4733H5.16673V19.9278H14.0419V29.4733H18.2554V6.52393H14.0419V15.8731H5.16673V6.52393ZM28.1008 25.4826C30.0215 25.4826 31.5867 23.9193 31.5867 21.9982V12.1177H35.5761V21.9982C35.5761 26.1203 32.2222 29.4732 28.1008 29.4732C23.9785 29.4732 20.6245 26.1203 20.6245 21.9982V12.1177H24.6152V21.9982C24.6152 23.9193 26.1795 25.4826 28.1008 25.4826ZM46.7167 12.2336C44.7371 12.2336 43.3553 12.808 42.0209 14.1179V6.52393H38.0172V20.5977C38.0172 25.8656 41.826 29.4733 46.105 29.4733C50.8621 29.4733 55.0302 25.8013 55.0302 20.8537C55.0302 15.9688 51.1867 12.2336 46.7167 12.2336ZM42.0287 20.8539C42.0287 23.5039 44.1033 25.7697 46.8162 25.7697C49.115 25.7697 51.1907 23.5039 51.1907 20.8539C51.1907 18.2035 49.115 15.937 46.8162 15.937C44.1033 15.937 42.0287 18.2035 42.0287 20.8539ZM61.7546 13.2425C61.7546 11.2299 63.0956 10.5918 64.5637 10.5918C65.7456 10.5918 67.3096 11.4856 68.3303 12.5714L70.9475 9.50675C69.6395 7.75109 66.9902 6.5376 64.8192 6.5376C60.477 6.5376 57.3483 9.05982 57.3483 13.2425C57.3483 17.6799 60.4717 18.7745 63.1453 19.7114C65.1457 20.4125 66.8943 21.0252 66.8943 22.884C66.8943 24.2233 65.5858 25.4057 64.0861 25.4057C61.9393 25.4057 61.1101 24.4573 60.1629 23.3739C60.0673 23.2647 59.9706 23.154 59.8712 23.0429L56.9655 26.0434C58.8182 28.3103 61.116 29.4601 63.862 29.4601C67.98 29.4601 71.3004 26.9061 71.3004 22.9149C71.3004 17.717 67.8291 16.629 65.0731 15.7652C63.2588 15.1966 61.7546 14.7251 61.7546 13.2425ZM73.7526 20.8834C73.7526 15.6143 77.5619 12.0087 81.8405 12.0087C86.5966 12.0087 90.7659 15.6798 90.7659 20.6281C90.7659 25.513 86.922 29.2478 82.4522 29.2478C80.4719 29.2478 79.0908 28.6724 77.7561 27.3634V34.9935H73.7526V20.8834ZM82.5519 25.5453C79.8392 25.5453 77.7644 23.2765 77.7644 20.6284C77.7644 17.9779 79.8392 15.7114 82.5519 15.7114C84.8502 15.7114 86.9262 17.9779 86.9262 20.6284C86.9262 23.2765 84.8502 25.5453 82.5519 25.5453ZM117.204 23.1835C117.204 24.7485 117.875 25.7696 120.236 25.7696C120.684 25.7696 121.195 25.7378 121.642 25.7069L120.652 29.346C120.269 29.4405 119.565 29.4735 119.055 29.4735C115.64 29.4735 113.151 27.6535 113.151 24.0456V9.93454L117.204 8.11523V12.7448H120.875V16.2561H117.204V23.1835Z" fill="#2F2F2F"/>
<path id="Exclude_2" fill-rule="evenodd" clip-rule="evenodd" d="M106.481 13.2841C107.831 14.0811 108.91 15.1397 109.678 16.4602C110.432 17.7711 110.791 19.2019 110.791 20.7527V20.8315C110.791 22.408 110.345 23.8409 109.534 25.1379C108.728 26.4313 107.661 27.4444 106.298 28.1853C105.004 28.8863 103.627 29.2291 102.168 29.2291H101.926C100.607 29.2291 99.4006 28.9412 98.308 28.4689C97.7541 28.2296 97.2388 27.9521 96.7617 27.6226L93.2817 31.103C93.3637 31.3647 93.4074 31.64 93.4074 31.9222C93.4091 32.6463 93.1214 33.3411 92.6083 33.852C92.0973 34.3658 91.4021 34.6539 90.6775 34.6521C89.953 34.654 89.258 34.3659 88.7474 33.852C88.2316 33.3365 87.9476 32.6513 87.9473 31.9222C87.9449 31.1978 88.2325 30.5026 88.746 29.9916C89.4958 29.2377 90.6172 28.9918 91.6137 29.3627L94.9806 25.9876C94.4236 25.3005 93.9738 24.5405 93.6662 23.7047C93.3168 22.7474 93.1118 21.7284 93.1118 20.649V20.3282C93.1118 18.7906 93.6065 17.381 94.4162 16.0998C94.8158 15.4714 95.3153 14.9113 95.8516 14.4189L85.707 7.10961L84.9687 6.54954C84.4374 6.86965 83.8217 7.06435 83.156 7.06435C81.2045 7.06435 79.6237 5.48266 79.6237 3.53206C79.6237 1.58122 81.2029 0 83.1544 0C85.1059 0 86.6857 1.58122 86.6857 3.53206C86.6857 3.85735 86.6219 4.16568 86.5389 4.46481C89.2126 6.49322 93.3361 9.62565 95.9457 11.608C96.7506 12.2194 97.4114 12.7214 97.8413 13.0479C98.7342 12.5963 99.712 12.3023 100.655 12.1661V7.96835C99.4763 7.46791 98.787 6.36025 98.787 5.06802C98.787 3.30671 100.224 1.87941 101.986 1.87941C103.745 1.87941 105.158 3.30671 105.158 5.06802C105.158 6.36025 104.426 7.46791 103.248 7.96835V12.1642C104.426 12.3243 105.472 12.6969 106.481 13.2841ZM102.168 25.4577C103.396 25.4577 104.481 24.8111 105.426 23.7614C106.248 22.857 106.659 21.8606 106.659 20.7847C106.659 20.6235 106.653 20.4547 106.64 20.29C106.557 19.4972 106.301 18.7695 105.87 18.0949C105.426 17.4205 104.853 16.9078 104.153 16.5325C103.465 16.1806 102.736 16.0288 101.966 16.0288H101.887C101.038 16.0288 100.276 16.2596 99.5618 16.7301C98.8349 17.2039 98.2882 17.7998 97.8835 18.5661C97.5049 19.2672 97.3548 20.0094 97.3548 20.7923V21.0341C97.3548 21.8304 97.6188 22.5814 98.1053 23.2692C98.576 23.97 99.1512 24.5235 99.9079 24.9115C100.579 25.2639 101.265 25.4577 101.966 25.4577H102.168Z" fill="#2F2F2F"/>
</g>
</svg>
