<svg width="40" height="41" viewBox="0 0 40 41" fill="none" xmlns="http://www.w3.org/2000/svg">
<rect y="0.830078" width="40" height="40" rx="20" fill="#4C40F7"/>
<path d="M19.9993 17.748C19.1817 17.748 18.3977 18.0728 17.8195 18.6509C17.2414 19.2291 16.9167 20.0131 16.9167 20.8307C16.9167 21.6483 17.2414 22.4324 17.8195 23.0105C18.3977 23.5886 19.1817 23.9134 19.9993 23.9134C20.8169 23.9134 21.601 23.5886 22.1791 23.0105C22.7572 22.4324 23.082 21.6483 23.082 20.8307C23.082 20.0131 22.7572 19.2291 22.1791 18.6509C21.601 18.0728 20.8169 17.748 19.9993 17.748ZM19.9993 22.8327C19.4682 22.8327 18.9588 22.6217 18.5832 22.2461C18.2077 21.8706 17.9967 21.3612 17.9967 20.83C17.9967 20.2989 18.2077 19.7895 18.5832 19.4139C18.9588 19.0384 19.4682 18.8274 19.9993 18.8274C20.5305 18.8274 21.0399 19.0384 21.4154 19.4139C21.791 19.7895 22.002 20.2989 22.002 20.83C22.002 21.3612 21.791 21.8706 21.4154 22.2461C21.0399 22.6217 20.5305 22.8327 19.9993 22.8327Z" fill="white"/>
<path d="M23.204 18.3533C23.6009 18.3533 23.9227 18.0316 23.9227 17.6347C23.9227 17.2378 23.6009 16.916 23.204 16.916C22.8071 16.916 22.4853 17.2378 22.4853 17.6347C22.4853 18.0316 22.8071 18.3533 23.204 18.3533Z" fill="white"/>
<path d="M25.6887 16.9042C25.5343 16.5056 25.2985 16.1437 24.9962 15.8415C24.694 15.5394 24.3319 15.3037 23.9333 15.1495C23.4669 14.9744 22.9741 14.8797 22.476 14.8695C21.834 14.8415 21.6307 14.8335 20.0027 14.8335C18.3747 14.8335 18.166 14.8335 17.5293 14.8695C17.0316 14.8792 16.5392 14.9739 16.0733 15.1495C15.6746 15.3035 15.3125 15.5391 15.0102 15.8413C14.7079 16.1435 14.4722 16.5055 14.318 16.9042C14.1429 17.3706 14.0484 17.8634 14.0387 18.3615C14.01 19.0028 14.0013 19.2062 14.0013 20.8348C14.0013 22.4628 14.0013 22.6702 14.0387 23.3082C14.0487 23.8068 14.1427 24.2988 14.318 24.7662C14.4726 25.1647 14.7086 25.5265 15.011 25.8287C15.3133 26.1308 15.6754 26.3665 16.074 26.5208C16.539 26.703 17.0316 26.8044 17.5307 26.8208C18.1727 26.8488 18.376 26.8575 20.004 26.8575C21.632 26.8575 21.8407 26.8575 22.4773 26.8208C22.9754 26.8107 23.4682 26.7163 23.9347 26.5415C24.3332 26.387 24.6951 26.151 24.9973 25.8488C25.2996 25.5466 25.5355 25.1847 25.69 24.7862C25.8653 24.3195 25.9593 23.8275 25.9693 23.3288C25.998 22.6875 26.0067 22.4842 26.0067 20.8555C26.0067 19.2268 26.0067 19.0202 25.9693 18.3822C25.9616 17.877 25.8666 17.377 25.6887 16.9042ZM24.8767 23.2588C24.8724 23.643 24.8023 24.0237 24.6693 24.3842C24.5692 24.6434 24.416 24.8788 24.2194 25.0753C24.0228 25.2717 23.7873 25.4249 23.528 25.5248C23.1715 25.6571 22.7949 25.7273 22.4147 25.7322C21.7813 25.7615 21.6027 25.7688 19.9787 25.7688C18.3533 25.7688 18.1873 25.7688 17.542 25.7322C17.162 25.7275 16.7856 25.6574 16.4293 25.5248C16.1691 25.4255 15.9327 25.2726 15.7353 25.0761C15.5379 24.8796 15.3839 24.6439 15.2833 24.3842C15.1523 24.0275 15.0822 23.6514 15.076 23.2715C15.0473 22.6382 15.0407 22.4595 15.0407 20.8355C15.0407 19.2108 15.0407 19.0448 15.076 18.3988C15.0803 18.0148 15.1504 17.6344 15.2833 17.2742C15.4867 16.7482 15.9033 16.3342 16.4293 16.1328C16.7857 16.0009 17.162 15.9308 17.542 15.9255C18.176 15.8968 18.354 15.8888 19.9787 15.8888C21.6033 15.8888 21.77 15.8888 22.4147 15.9255C22.7949 15.9301 23.1716 16.0002 23.528 16.1328C23.7873 16.233 24.0228 16.3863 24.2193 16.5828C24.4159 16.7794 24.5692 17.0149 24.6693 17.2742C24.8004 17.6308 24.8705 18.0069 24.8767 18.3868C24.9053 19.0208 24.9127 19.1988 24.9127 20.8235C24.9127 22.4475 24.9127 22.6222 24.884 23.2595H24.8767V23.2588Z" fill="white"/>
</svg>
