<svg width="155" height="35" viewBox="0 0 155 35" fill="none" xmlns="http://www.w3.org/2000/svg">
<g id="Group">
<path id="Vector" d="M147.951 2.6073L154.408 2.64287C154.408 2.64287 142.404 18.9081 141.424 20.2337C141.106 20.6629 140.622 21.1258 140.377 21.6997C139.757 23.1422 139.12 26.3067 139.12 26.3067L133.213 26.3363C133.213 26.3363 134.132 23.0377 134.094 21.2807C134.061 19.746 133.278 18.213 132.838 16.6737C132.394 15.1154 131.791 12.0664 131.791 12.0664H137.864L138.702 15.4171L147.951 2.6073" fill="#2F2F2F"/>
<path id="Exclude" fill-rule="evenodd" clip-rule="evenodd" d="M70.5868 19.4227C72.0603 15.6931 73.6695 11.62 73.1551 7.87832C72.8326 5.53699 71.306 2.9928 69.6304 1.92672C69.5992 1.90767 69.5201 1.84791 69.4352 1.78367L69.4349 1.78345L69.4348 1.78339L69.4347 1.78332L69.4345 1.78321C69.3328 1.70633 69.2228 1.62316 69.1762 1.59577C67.9362 0.877516 65.9512 0.272289 64.5689 0.130024C57.4427 -0.600891 53.1916 2.5654 50.7478 6.83093C49.7863 8.50646 49.1501 10.3366 48.6536 12.2762C48.1048 14.4243 47.7111 17.0297 48.0252 19.396C48.2139 20.8136 48.993 22.8285 50.1197 24.0034C52.6029 26.5915 57.2217 26.5597 62.3338 26.5245C62.9334 26.5204 63.5397 26.5162 64.1502 26.5162C65.9325 26.5162 70.2064 26.4806 71.4962 26.4472C71.913 26.4345 73.109 21.5677 73.0023 21.4106C72.9555 21.3553 72.6327 21.3606 72.1408 21.3687C71.5563 21.3783 70.733 21.3918 69.8505 21.3121C70.0843 20.6947 70.3335 20.0638 70.5868 19.4227ZM115.509 9.57029C116.202 12.0711 114.881 17.947 114.881 17.947C114.881 17.947 107.98 17.8319 104.201 17.947C103.943 17.9549 103.673 17.9532 103.407 17.9514C102.459 17.9453 101.542 17.9393 101.269 18.366C100.777 19.1322 101.449 20.3116 102.019 20.8098C102.595 21.3138 103.65 21.4254 104.209 21.4846C104.287 21.4927 104.354 21.4999 104.41 21.507C107.478 21.8967 113.899 21.6076 113.899 21.6076L112.786 26.5326C112.786 26.5326 103.713 26.9878 99.1748 25.9045C98.2787 25.6911 97.4386 25.2598 96.8711 24.6482C96.7702 24.5393 96.678 24.4046 96.5855 24.2694L96.5855 24.2693C96.5359 24.1969 96.4863 24.1244 96.4353 24.0557C96.3183 23.8983 95.9771 23.3814 95.824 22.9727C94.7875 20.2106 95.9455 14.9191 97.0806 12.0834L97.0989 12.0377L97.099 12.0375C97.2276 11.7166 97.3858 11.3217 97.552 10.9839C97.6359 10.8135 97.7149 10.6347 97.7903 10.4641C97.9102 10.1925 98.0209 9.94193 98.1277 9.77977C98.1912 9.68088 98.263 9.60111 98.3348 9.52133L98.3349 9.52121C98.3952 9.45416 98.4556 9.3871 98.5111 9.30867C98.6512 9.10552 98.8143 8.9087 98.9653 8.73298C99.36 8.27519 99.8048 7.9437 100.333 7.54992L100.431 7.47671C102.322 6.06069 105.744 4.96146 109.855 5.38222C111.403 5.54137 113.74 6.09415 114.881 7.68589C115.116 8.01309 115.26 8.58864 115.392 9.1172L115.392 9.11727C115.431 9.2752 115.47 9.42894 115.509 9.57059V9.57029ZM137.649 10.7183C137.649 10.7183 136.917 6.756 135.726 6.03775C134.73 5.43865 132.683 5.4973 130.592 5.55722C129.956 5.57544 129.316 5.59377 128.7 5.59377H124.61C124.263 5.59377 123.936 5.59066 123.628 5.58774L123.628 5.58773C121.661 5.56906 120.497 5.558 120.273 6.4127C119.473 9.46597 116.085 26.3068 116.085 26.3068H121.53L125.09 10.8102H128.022C131.414 10.8102 137.649 10.7183 137.649 10.7183ZM109.803 11.4383C110.548 12.5902 110.378 13.5849 110.378 13.5849L102.264 13.5324C102.264 13.5324 102.172 10.0268 106.902 10.1754C108.578 10.2278 109.166 10.4563 109.803 11.4383ZM95.8159 5.54331L90.5364 5.57436L86.767 21.2807C86.767 21.2807 84.6813 21.2958 84.0444 21.2807C82.0343 21.2346 81.3745 21.1677 80.9034 20.2333C80.5178 19.4703 80.7189 18.5451 80.9357 17.5473C80.9979 17.2613 81.0613 16.9694 81.1126 16.6737C81.7558 12.967 83.3014 5.54331 83.3014 5.54331L77.8315 5.59335C77.8315 5.59335 76.7904 10.3616 76.2961 12.6945C76.197 13.1616 76.0821 13.6599 75.9622 14.1795C75.2361 17.3278 74.3289 21.2611 75.668 23.7936C77.0651 26.4334 80.1011 26.3833 83.6567 26.3246H83.6568H83.6569H83.6571H83.6572C84.1944 26.3158 84.7436 26.3067 85.3007 26.3067H91.374C92.8735 19.5006 95.8159 5.54331 95.8159 5.54331ZM65.8254 15.6265C65.9375 15.2284 66.0599 14.8235 66.1831 14.4162C66.6677 12.8139 67.1637 11.174 67.082 9.76289C66.9711 7.87005 65.3839 6.14659 64.3597 5.7843C61.2751 4.69531 58.3873 6.21773 57.2395 7.45953C55.7548 9.06784 55.252 10.9465 54.7264 13.5329C54.3351 15.4529 54.0145 17.4798 54.7264 18.9772C55.7844 21.1992 58.7237 21.1489 62.1436 21.0904C62.7981 21.0792 63.4703 21.0677 64.1502 21.0717C64.7291 19.52 65.2156 17.7921 65.7015 16.0664L65.8254 15.6265ZM47.4242 5.59968C47.2843 6.23683 47.1444 6.90783 47.0033 7.58456C46.7897 8.60933 46.5733 9.64724 46.35 10.6006H40.4864C40.6667 9.90411 40.8302 9.20919 40.9903 8.52888L40.9903 8.52882L40.9903 8.52877C41.2336 7.49518 41.4689 6.4953 41.743 5.57466C42.6591 5.57466 43.5438 5.58063 44.4493 5.58673C45.3983 5.59313 46.37 5.59968 47.4245 5.59968H47.4242ZM45.9313 12.0667H40.2769C39.9903 13.0089 38.4739 19.3499 37.9735 21.6997C37.8615 22.2264 37.7621 22.7558 37.6643 23.277C37.0065 26.7801 36.4172 29.9184 32.5289 29.4477C32.3308 30.1759 32.1079 31.0188 31.8781 31.8881C31.6121 32.8942 31.3367 33.9358 31.0794 34.8761C31.571 34.8862 32.0521 34.9037 32.5216 34.9208C33.8024 34.9674 34.9978 35.0109 36.0888 34.8926C37.0057 34.7926 38.6623 34.3965 39.0203 34.055C39.0946 33.9841 39.1572 33.9667 39.2241 33.9482C39.2875 33.9305 39.3547 33.9118 39.4393 33.8455C41.33 32.3686 41.8352 30.3427 42.5226 27.5862C42.5418 27.5093 42.5611 27.4319 42.5806 27.3538C43.728 22.7591 45.192 16.1586 45.9313 12.0667Z" fill="#2F2F2F"/>
<g id="Group_2">
<path id="Vector_2" d="M27.0837 22.7471L26.9625 23.0611C24.8979 27.0819 21.2391 29.5486 16.0205 29.6575C13.5809 29.7078 11.2564 29.0818 9.73794 28.4012C6.46103 26.9288 3.70466 24.1983 2.19942 21.281C0.0401353 17.099 -0.349284 11.2815 4.14049 6.9364C4.20982 6.9364 3.59585 7.8786 3.66517 7.8786L3.54159 8.28068C0.306279 18.4098 10.2741 27.0904 19.9638 26.0975C22.2925 25.8588 25.262 24.5835 27.0837 22.7471Z" fill="#2F2F2F"/>
<path id="Vector_3" d="M21.2201 18.5586C23.6579 18.5752 26.2042 17.4359 27.7122 15.8363C26.3929 19.185 22.5732 21.3373 17.451 20.6528C13.162 20.0789 9.07641 15.7631 8.65565 11.4385C8.34791 8.29118 9.44473 6.4128 11.2523 4.13416C10.6241 5.32592 10.3893 6.24492 10.3309 6.83116C9.64426 13.6394 15.7695 18.5228 21.2201 18.5586Z" fill="#2F2F2F"/>
<path id="Vector_4" d="M27.4671 10.1022C27.0882 10.9714 24.9063 12.6129 23.9427 12.8181C20.1272 13.631 17.6837 11.8217 16.4036 9.76277C16.2134 9.45533 15.8617 8.61561 15.7987 8.40191C15.3022 6.71402 15.5304 4.1611 17.0112 2.83972C16.5651 4.09629 16.5 5.55571 16.7348 6.50454C16.8771 7.07812 17.3105 8.0797 17.7443 8.70965C18.5333 9.85711 19.034 10.1359 20.0476 10.7454C20.5043 11.0196 20.994 11.2397 21.2056 11.2999C22.1668 11.583 24.1962 12.3284 27.4674 10.1022" fill="#2F2F2F"/>
</g>
</g>
</svg>
