<svg width="40" height="41" viewBox="0 0 40 41" fill="none" xmlns="http://www.w3.org/2000/svg">
<rect y="0.830078" width="40" height="40" rx="20" fill="#4C40F7"/>
<path d="M15.322 17.628C16.1276 17.628 16.7807 16.975 16.7807 16.1694C16.7807 15.3638 16.1276 14.7107 15.322 14.7107C14.5164 14.7107 13.8633 15.3638 13.8633 16.1694C13.8633 16.975 14.5164 17.628 15.322 17.628Z" fill="white"/>
<path d="M18.158 18.7334V26.8261H20.6707V22.8241C20.6707 21.7681 20.8693 20.7454 22.1787 20.7454C23.47 20.7454 23.486 21.9528 23.486 22.8908V26.8268H26V22.3888C26 20.2088 25.5307 18.5334 22.9827 18.5334C21.7593 18.5334 20.9393 19.2048 20.604 19.8401H20.57V18.7334H18.158ZM14.0633 18.7334H16.58V26.8261H14.0633V18.7334Z" fill="white"/>
</svg>
