<svg width="190" height="35" viewBox="0 0 190 35" fill="none" xmlns="http://www.w3.org/2000/svg">
<g id="Group">
<path id="Exclude" fill-rule="evenodd" clip-rule="evenodd" d="M14.0845 26.1229C23.5468 26.1229 29.5295 21.248 29.5295 12.7557C29.529 3.42446 23.1287 0.083374 12.6931 0.083374C8.65718 0.083374 3.78697 0.361009 0.309204 0.778644V34.0618H10.4658V26.1229H14.0845ZM19.5128 12.8936C19.5128 17.2114 17.4247 20.1357 12.1363 20.1357H10.4653V6.38453C11.0594 6.35095 11.6142 6.35095 12.1363 6.35095C17.1437 6.35048 19.5128 8.71724 19.5128 12.8936ZM142.792 20.1357C148.082 20.1357 150.167 17.2114 150.167 12.8936C150.167 8.71724 147.8 6.35048 142.792 6.35095C142.272 6.35095 141.716 6.35095 141.127 6.38453V20.1357H142.792ZM144.745 26.1229C154.2 26.1229 160.186 21.248 160.186 12.7557C160.186 3.42446 153.787 0.083374 143.35 0.083374C139.315 0.083374 134.442 0.361009 130.964 0.778644V34.0618H141.126V26.1229H144.745ZM178.133 6.62648C175.214 6.62648 173.403 7.46317 173.403 9.27277C173.403 11.4323 176.068 12.3631 179.223 13.4651C183.8 15.0636 189.408 17.0223 189.408 23.6143C189.408 31.9707 182.449 34.7565 173.964 34.7565C170.623 34.7565 166.449 34.2013 163.39 33.0874L162.274 25.4262C165.335 26.9572 170.487 28.0706 173.821 28.0706C177.58 28.0706 179.113 26.9572 179.113 24.8705C179.113 22.6695 176.507 21.7491 173.408 20.6543C168.859 19.0477 163.248 17.0657 163.248 10.1109C163.248 3.32229 168.812 0.083374 177.022 0.083374C181.334 0.083374 183.7 0.501009 186.345 1.05817L187.179 8.30175C184.815 7.32317 181.334 6.62648 178.133 6.62648ZM123.314 0.778644H113.157V34.0618H123.314V0.778644ZM71.9684 0.778644H82.126V34.0618H71.9684V0.778644ZM99.7972 27.3753V0.778644H89.6396V34.0618H108.008L109.538 27.3753H99.7972ZM54.2977 0.778644H64.4552L64.4547 34.0618H54.2972V20.9703H43.722V34.0618H33.563V0.778644H43.7224V14.0077H54.2977V0.778644Z" fill="#2F2F2F"/>
</g>
</svg>
