<svg width="40" height="41" viewBox="0 0 40 41" fill="none" xmlns="http://www.w3.org/2000/svg">
<rect y="0.830078" width="40" height="40" rx="20" fill="#4C40F7"/>
<path d="M25.0886 18.1615C25.0973 18.2782 25.0973 18.3942 25.0973 18.5102C25.0973 22.0602 22.3953 26.1509 17.4573 26.1509C15.936 26.1509 14.5226 25.7102 13.3333 24.9449C13.5493 24.9695 13.7573 24.9782 13.982 24.9782C15.1906 24.9811 16.3651 24.5769 17.316 23.8309C16.7556 23.8207 16.2124 23.6358 15.7621 23.302C15.3119 22.9682 14.9772 22.5021 14.8046 21.9689C14.9706 21.9935 15.1373 22.0102 15.312 22.0102C15.5526 22.0102 15.7946 21.9769 16.0193 21.9189C15.4112 21.7961 14.8643 21.4664 14.4717 20.986C14.0792 20.5055 13.8651 19.904 13.866 19.2835V19.2502C14.224 19.4495 14.6393 19.5742 15.0793 19.5909C14.7107 19.3459 14.4085 19.0135 14.1995 18.6234C13.9906 18.2332 13.8815 17.7974 13.882 17.3549C13.882 16.8562 14.0146 16.3989 14.2473 16.0002C14.9221 16.8302 15.7636 17.5092 16.7175 17.9933C17.6714 18.4774 18.7164 18.7557 19.7846 18.8102C19.7433 18.6102 19.718 18.4029 19.718 18.1949C19.7178 17.8422 19.7871 17.4929 19.922 17.167C20.0569 16.8411 20.2547 16.545 20.5041 16.2956C20.7535 16.0463 21.0496 15.8485 21.3755 15.7136C21.7014 15.5787 22.0506 15.5093 22.4033 15.5095C23.1766 15.5095 23.8746 15.8335 24.3653 16.3575C24.9665 16.2413 25.543 16.0218 26.0693 15.7089C25.8689 16.3294 25.4492 16.8556 24.8886 17.1889C25.4218 17.128 25.9429 16.9878 26.4346 16.7729C26.0674 17.3083 25.6123 17.7778 25.0886 18.1615Z" fill="white"/>
</svg>
