<svg width="120" height="16" viewBox="0 0 120 16" fill="none" xmlns="http://www.w3.org/2000/svg">
<path d="M16.017 6.14073C15.9643 5.97943 15.8261 5.86421 15.6582 5.83787L10.6545 5.12681L8.40278 0.60041C8.32707 0.448981 8.17235 0.353516 8.00446 0.353516C7.83657 0.353516 7.68185 0.448981 7.60613 0.603703L5.38408 5.14327L0.380347 5.88725C0.212459 5.91359 0.0741979 6.0288 0.0215271 6.19011C-0.0311438 6.35141 0.0149432 6.52918 0.136745 6.6444L3.76774 10.1635L2.9283 15.1474C2.89867 15.3153 2.9678 15.4832 3.10607 15.582C3.18178 15.6379 3.27395 15.6676 3.36613 15.6676C3.43855 15.6676 3.50768 15.6511 3.57352 15.6149L8.04067 13.248L12.521 15.5886C12.5868 15.6215 12.656 15.6379 12.7251 15.6379C12.9687 15.6379 13.1695 15.4371 13.1695 15.1935C13.1695 15.1573 13.1662 15.1244 13.1563 15.0915L12.2906 10.1371L15.8985 6.59831C16.0269 6.4798 16.0697 6.30203 16.017 6.14073Z" fill="#4C40F7"/>
<path d="M42.0072 6.14073C41.9546 5.97943 41.8163 5.86421 41.6484 5.83787L36.6447 5.12681L34.393 0.60041C34.3173 0.448981 34.1626 0.353516 33.9947 0.353516C33.8268 0.353516 33.6721 0.448981 33.5964 0.603703L31.3743 5.14327L26.3706 5.88725C26.2027 5.91359 26.0644 6.0288 26.0118 6.19011C25.9591 6.35141 26.0052 6.52918 26.127 6.6444L29.758 10.1635L28.9185 15.1474C28.8889 15.3153 28.958 15.4832 29.0963 15.582C29.172 15.6379 29.2642 15.6676 29.3564 15.6676C29.4288 15.6676 29.4979 15.6511 29.5638 15.6149L34.0309 13.248L38.5112 15.5886C38.5771 15.6215 38.6462 15.6379 38.7153 15.6379C38.9589 15.6379 39.1597 15.4371 39.1597 15.1935C39.1597 15.1573 39.1564 15.1244 39.1466 15.0915L38.2808 10.1371L41.8887 6.59831C42.0171 6.4798 42.0599 6.30203 42.0072 6.14073Z" fill="#4C40F7"/>
<path d="M67.9975 6.14073C67.9448 5.97943 67.8066 5.86421 67.6387 5.83787L62.635 5.12681L60.3833 0.60041C60.3076 0.448981 60.1528 0.353516 59.985 0.353516C59.8171 0.353516 59.6623 0.448981 59.5866 0.603703L57.3646 5.14327L52.3608 5.88725C52.193 5.91359 52.0547 6.0288 52.002 6.19011C51.9494 6.35141 51.9954 6.52918 52.1172 6.6444L55.7482 10.1635L54.9088 15.1474C54.8792 15.3153 54.9483 15.4832 55.0866 15.582C55.1623 15.6379 55.2545 15.6676 55.3466 15.6676C55.419 15.6676 55.4882 15.6511 55.554 15.6149L60.0212 13.248L64.5015 15.5886C64.5673 15.6215 64.6365 15.6379 64.7056 15.6379C64.9492 15.6379 65.15 15.4371 65.15 15.1935C65.15 15.1573 65.1467 15.1244 65.1368 15.0915L64.2711 10.1371L67.879 6.59831C68.0074 6.4798 68.0502 6.30203 67.9975 6.14073Z" fill="#4C40F7"/>
<path d="M93.9877 6.14073C93.9351 5.97943 93.7968 5.86421 93.6289 5.83787L88.6252 5.12681L86.3735 0.60041C86.2978 0.448981 86.1431 0.353516 85.9752 0.353516C85.8073 0.353516 85.6526 0.448981 85.5769 0.603703L83.3548 5.14327L78.3511 5.88725C78.1832 5.91359 78.0449 6.0288 77.9923 6.19011C77.9396 6.35141 77.9857 6.52918 78.1075 6.6444L81.7385 10.1635L80.899 15.1474C80.8694 15.3153 80.9385 15.4832 81.0768 15.582C81.1525 15.6379 81.2447 15.6676 81.3369 15.6676C81.4093 15.6676 81.4784 15.6511 81.5443 15.6149L86.0114 13.248L90.4917 15.5886C90.5576 15.6215 90.6267 15.6379 90.6958 15.6379C90.9394 15.6379 91.1402 15.4371 91.1402 15.1935C91.1402 15.1573 91.1369 15.1244 91.1271 15.0915L90.2613 10.1371L93.8692 6.59831C93.9976 6.4798 94.0404 6.30203 93.9877 6.14073Z" fill="#4C40F7"/>
<path d="M119.978 6.14073C119.925 5.97943 119.787 5.86421 119.619 5.83787L114.615 5.12681L112.364 0.60041C112.288 0.448981 112.133 0.353516 111.965 0.353516C111.798 0.353516 111.643 0.448981 111.567 0.603703L109.345 5.14327L104.341 5.88725C104.173 5.91359 104.035 6.0288 103.982 6.19011C103.93 6.35141 103.976 6.52918 104.098 6.6444L107.729 10.1635L106.889 15.1474C106.86 15.3153 106.929 15.4832 107.067 15.582C107.143 15.6379 107.235 15.6676 107.327 15.6676C107.4 15.6676 107.469 15.6511 107.534 15.6149L112.002 13.248L116.482 15.5886C116.548 15.6215 116.617 15.6379 116.686 15.6379C116.93 15.6379 117.13 15.4371 117.13 15.1935C117.13 15.1573 117.127 15.1244 117.117 15.0915L116.252 10.1371L119.859 6.59831C119.988 6.4798 120.031 6.30203 119.978 6.14073Z" fill="#4C40F7"/>
</svg>
